<svg xmlns="http://www.w3.org/2000/svg" xmlns:xlink="http://www.w3.org/1999/xlink" width="340" zoomAndPan="magnify" viewBox="0 0 255 112.499997" height="150" preserveAspectRatio="xMidYMid meet" version="1.2"><defs/><g id="333c5f307b"><g style="fill:#ffffff;fill-opacity:1;"><g transform="translate(4.962583, 71.581856)"><path style="stroke:none" d="M 5.3125 -26.28125 C 4.375 -26.34375 3.742188 -26.515625 3.421875 -26.796875 C 3.109375 -27.085938 2.6875 -27.550781 2.15625 -28.1875 C 2.019531 -28.351562 1.789062 -28.738281 1.46875 -29.34375 C 1.15625 -29.945312 0.859375 -30.664062 0.578125 -31.5 C 0.296875 -32.332031 0.117188 -33.148438 0.046875 -33.953125 C 0.015625 -34.390625 0.03125 -34.757812 0.09375 -35.0625 C 0.164062 -35.363281 0.367188 -35.53125 0.703125 -35.5625 C 1.335938 -35.664062 2.375 -35.75 3.8125 -35.8125 C 5.25 -35.875 6.921875 -35.921875 8.828125 -35.953125 C 10.734375 -35.992188 12.710938 -36.003906 14.765625 -35.984375 C 16.828125 -35.972656 18.8125 -35.914062 20.71875 -35.8125 C 21.28125 -35.78125 22.03125 -35.742188 22.96875 -35.703125 C 23.90625 -35.671875 24.789062 -35.617188 25.625 -35.546875 C 26.46875 -35.484375 26.988281 -35.390625 27.1875 -35.265625 C 27.550781 -35.097656 27.957031 -34.65625 28.40625 -33.9375 C 28.863281 -33.21875 29.300781 -32.351562 29.71875 -31.34375 C 30.132812 -30.34375 30.492188 -29.289062 30.796875 -28.1875 C 30.929688 -27.75 30.894531 -27.265625 30.6875 -26.734375 C 30.488281 -26.203125 29.972656 -25.953125 29.140625 -25.984375 C 28.773438 -26.015625 27.53125 -26.15625 25.40625 -26.40625 C 23.28125 -26.65625 20.664062 -26.78125 17.5625 -26.78125 L 17.8125 -26.78125 C 18.738281 -26.644531 19.382812 -26.316406 19.75 -25.796875 C 20.125 -25.285156 20.328125 -24.742188 20.359375 -24.171875 C 20.390625 -23.609375 20.390625 -23.140625 20.359375 -22.765625 C 20.222656 -21.328125 20.082031 -19.988281 19.9375 -18.75 C 19.789062 -17.519531 19.640625 -16.203125 19.484375 -14.796875 C 19.335938 -13.390625 19.210938 -11.765625 19.109375 -9.921875 C 19.003906 -8.085938 18.953125 -5.847656 18.953125 -3.203125 C 18.953125 -2.109375 18.785156 -1.25 18.453125 -0.625 C 18.117188 -0.0078125 17.632812 0.28125 17 0.25 C 15.332031 0.1875 13.753906 -0.175781 12.265625 -0.84375 C 10.773438 -1.519531 9.726562 -2.222656 9.125 -2.953125 C 8.789062 -3.390625 8.625 -3.941406 8.625 -4.609375 C 8.65625 -6.679688 8.753906 -8.847656 8.921875 -11.109375 C 9.085938 -13.367188 9.285156 -15.523438 9.515625 -17.578125 C 9.753906 -19.640625 9.972656 -21.453125 10.171875 -23.015625 C 10.378906 -24.585938 10.515625 -25.742188 10.578125 -26.484375 C 9.609375 -26.484375 8.679688 -26.460938 7.796875 -26.421875 C 6.910156 -26.390625 6.082031 -26.34375 5.3125 -26.28125 Z M 5.3125 -26.28125 "/></g></g><g style="fill:#ffffff;fill-opacity:1;"><g transform="translate(32.842546, 71.581856)"><path style="stroke:none" d="M 2.515625 -3.015625 C 2.171875 -3.378906 2 -3.894531 2 -4.5625 C 2 -5.132812 2.023438 -5.726562 2.078125 -6.34375 C 2.128906 -6.957031 2.1875 -7.601562 2.25 -8.28125 C 1.882812 -8.875 1.523438 -9.519531 1.171875 -10.21875 C 0.828125 -10.925781 0.546875 -11.585938 0.328125 -12.203125 C 0.109375 -12.828125 0 -13.304688 0 -13.640625 C 0 -14.109375 0.234375 -14.34375 0.703125 -14.34375 C 1.398438 -14.28125 2.285156 -14.28125 3.359375 -14.34375 C 3.960938 -16.914062 4.691406 -19.515625 5.546875 -22.140625 C 6.398438 -24.765625 7.3125 -27.171875 8.28125 -29.359375 C 9.25 -31.554688 10.164062 -33.269531 11.03125 -34.5 C 11.164062 -34.707031 11.316406 -34.859375 11.484375 -34.953125 C 11.648438 -35.054688 11.898438 -35.078125 12.234375 -35.015625 C 12.703125 -34.878906 13.3125 -34.707031 14.0625 -34.5 C 14.820312 -34.300781 15.566406 -34.085938 16.296875 -33.859375 C 16.296875 -34.023438 16.296875 -34.171875 16.296875 -34.296875 C 16.296875 -34.429688 16.3125 -34.566406 16.34375 -34.703125 C 16.382812 -34.972656 16.488281 -35.191406 16.65625 -35.359375 C 16.820312 -35.523438 17.085938 -35.609375 17.453125 -35.609375 C 17.984375 -35.609375 18.703125 -35.550781 19.609375 -35.4375 C 20.515625 -35.320312 21.390625 -35.171875 22.234375 -34.984375 C 23.085938 -34.796875 23.734375 -34.617188 24.171875 -34.453125 C 24.578125 -34.316406 24.863281 -34.140625 25.03125 -33.921875 C 25.195312 -33.710938 25.296875 -33.421875 25.328125 -33.046875 C 25.390625 -32.546875 25.453125 -31.265625 25.515625 -29.203125 C 25.585938 -27.148438 25.722656 -24.550781 25.921875 -21.40625 C 26.128906 -18.269531 26.429688 -14.847656 26.828125 -11.140625 C 27.128906 -8.265625 27.414062 -5.957031 27.6875 -4.21875 C 27.957031 -2.476562 28.109375 -1.441406 28.140625 -1.109375 C 28.234375 -0.398438 27.898438 -0.046875 27.140625 -0.046875 C 26.066406 -0.046875 24.976562 -0.0859375 23.875 -0.171875 C 22.769531 -0.253906 21.753906 -0.410156 20.828125 -0.640625 C 19.910156 -0.878906 19.222656 -1.21875 18.765625 -1.65625 C 18.523438 -1.851562 18.3125 -2.4375 18.125 -3.40625 C 17.945312 -4.375 17.773438 -5.597656 17.609375 -7.078125 C 16.703125 -6.972656 15.753906 -6.878906 14.765625 -6.796875 C 13.785156 -6.710938 12.773438 -6.640625 11.734375 -6.578125 C 11.566406 -4.703125 11.519531 -2.910156 11.59375 -1.203125 C 11.59375 -0.867188 11.515625 -0.59375 11.359375 -0.375 C 11.210938 -0.15625 10.953125 -0.046875 10.578125 -0.046875 C 8.972656 -0.046875 7.398438 -0.328125 5.859375 -0.890625 C 4.328125 -1.460938 3.210938 -2.171875 2.515625 -3.015625 Z M 16.90625 -15.09375 C 16.769531 -16.90625 16.660156 -18.726562 16.578125 -20.5625 C 16.492188 -22.40625 16.414062 -24.160156 16.34375 -25.828125 C 16.34375 -26.234375 16.210938 -26.46875 15.953125 -26.53125 C 15.753906 -26.5625 15.585938 -26.445312 15.453125 -26.1875 C 14.878906 -24.445312 14.363281 -22.601562 13.90625 -20.65625 C 13.457031 -18.71875 13.066406 -16.765625 12.734375 -14.796875 Z M 16.90625 -15.09375 "/></g></g><g style="fill:#ffffff;fill-opacity:1;"><g transform="translate(62.528018, 71.581856)"><path style="stroke:none" d="M 13.75 -10.890625 C 13.570312 -11.484375 13.140625 -11.960938 12.453125 -12.328125 C 11.773438 -12.703125 10.953125 -13.054688 9.984375 -13.390625 C 9.015625 -13.722656 8 -14.109375 6.9375 -14.546875 C 5.882812 -14.984375 4.90625 -15.539062 4 -16.21875 C 3.101562 -16.90625 2.367188 -17.789062 1.796875 -18.875 C 1.234375 -19.96875 0.953125 -21.332031 0.953125 -22.96875 C 0.953125 -24.875 1.351562 -26.628906 2.15625 -28.234375 C 2.957031 -29.835938 4.007812 -31.234375 5.3125 -32.421875 C 6.613281 -33.609375 8.035156 -34.523438 9.578125 -35.171875 C 11.117188 -35.828125 12.625 -36.15625 14.09375 -36.15625 C 16.101562 -36.15625 17.785156 -35.945312 19.140625 -35.53125 C 20.492188 -35.113281 21.785156 -34.640625 23.015625 -34.109375 C 23.984375 -33.703125 24.835938 -33.101562 25.578125 -32.3125 C 26.316406 -31.53125 26.617188 -30.609375 26.484375 -29.546875 C 26.347656 -28.472656 26.1875 -27.265625 26 -25.921875 C 25.820312 -24.585938 25.210938 -23.003906 24.171875 -21.171875 C 24.035156 -20.929688 23.789062 -20.5 23.4375 -19.875 C 23.09375 -19.257812 22.585938 -18.867188 21.921875 -18.703125 C 21.585938 -18.609375 21.175781 -18.632812 20.6875 -18.78125 C 20.207031 -18.9375 19.679688 -19.097656 19.109375 -19.265625 C 17.867188 -19.523438 17.140625 -19.945312 16.921875 -20.53125 C 16.710938 -21.125 16.773438 -21.972656 17.109375 -23.078125 C 17.578125 -24.640625 17.640625 -25.796875 17.296875 -26.546875 C 16.960938 -27.304688 16.363281 -27.6875 15.5 -27.6875 C 14.757812 -27.6875 14.03125 -27.476562 13.3125 -27.0625 C 12.59375 -26.644531 12.007812 -26.082031 11.5625 -25.375 C 11.113281 -24.675781 10.867188 -23.910156 10.828125 -23.078125 C 10.796875 -21.734375 11.097656 -20.6875 11.734375 -19.9375 C 12.367188 -19.1875 13.203125 -18.59375 14.234375 -18.15625 C 15.273438 -17.71875 16.378906 -17.304688 17.546875 -16.921875 C 18.722656 -16.535156 19.828125 -16.050781 20.859375 -15.46875 C 21.898438 -14.882812 22.753906 -14.070312 23.421875 -13.03125 C 24.085938 -12 24.421875 -10.597656 24.421875 -8.828125 C 24.421875 -6.617188 23.953125 -4.8125 23.015625 -3.40625 C 22.085938 -2 20.882812 -0.96875 19.40625 -0.3125 C 17.9375 0.332031 16.398438 0.65625 14.796875 0.65625 C 12.785156 0.65625 11.113281 0.460938 9.78125 0.078125 C 8.445312 -0.304688 7.316406 -0.773438 6.390625 -1.328125 C 5.472656 -1.878906 4.664062 -2.40625 3.96875 -2.90625 C 3.195312 -3.507812 2.554688 -4.238281 2.046875 -5.09375 C 1.546875 -5.945312 1.179688 -6.78125 0.953125 -7.59375 C 0.722656 -8.414062 0.585938 -9.078125 0.546875 -9.578125 C 0.515625 -10.648438 0.585938 -11.335938 0.765625 -11.640625 C 0.953125 -11.941406 1.195312 -12.140625 1.5 -12.234375 C 1.96875 -12.398438 2.492188 -12.320312 3.078125 -12 C 3.671875 -11.6875 4.234375 -11.3125 4.765625 -10.875 C 5.296875 -10.445312 5.75 -10.132812 6.125 -9.9375 C 7.257812 -9.332031 8.328125 -8.945312 9.328125 -8.78125 C 10.328125 -8.613281 11.097656 -8.53125 11.640625 -8.53125 C 12.578125 -8.53125 13.226562 -8.6875 13.59375 -9 C 13.957031 -9.320312 14.007812 -9.953125 13.75 -10.890625 Z M 13.75 -10.890625 "/></g></g><g style="fill:#ffffff;fill-opacity:1;"><g transform="translate(89.55583, 71.581856)"><path style="stroke:none" d="M 16.25 -33.453125 C 16.019531 -32.210938 15.757812 -30.554688 15.46875 -28.484375 C 15.1875 -26.410156 14.894531 -24.101562 14.59375 -21.5625 L 16.953125 -21.765625 C 17.484375 -22.867188 18.082031 -24.085938 18.75 -25.421875 C 19.425781 -26.765625 20.097656 -28.09375 20.765625 -29.40625 C 21.429688 -30.726562 22.054688 -31.925781 22.640625 -33 C 23.222656 -34.070312 23.6875 -34.910156 24.03125 -35.515625 C 24.15625 -35.742188 24.351562 -35.929688 24.625 -36.078125 C 24.894531 -36.234375 25.210938 -36.242188 25.578125 -36.109375 C 26.179688 -35.910156 26.910156 -35.566406 27.765625 -35.078125 C 28.617188 -34.597656 29.445312 -34.085938 30.25 -33.546875 C 31.050781 -33.015625 31.6875 -32.550781 32.15625 -32.15625 C 32.75 -31.6875 32.878906 -31.113281 32.546875 -30.4375 C 32.410156 -30.175781 32.109375 -29.664062 31.640625 -28.90625 C 31.179688 -28.15625 30.613281 -27.257812 29.9375 -26.21875 C 29.269531 -25.1875 28.5625 -24.117188 27.8125 -23.015625 C 27.0625 -21.910156 26.34375 -20.859375 25.65625 -19.859375 C 24.96875 -18.859375 24.375 -18.003906 23.875 -17.296875 C 24.34375 -16.234375 24.925781 -15.113281 25.625 -13.9375 C 26.332031 -12.769531 27.066406 -11.660156 27.828125 -10.609375 C 28.597656 -9.554688 29.328125 -8.628906 30.015625 -7.828125 C 30.703125 -7.023438 31.265625 -6.4375 31.703125 -6.0625 C 32.398438 -5.46875 32.363281 -4.75 31.59375 -3.90625 C 31.164062 -3.40625 30.554688 -2.820312 29.765625 -2.15625 C 28.984375 -1.488281 28.15625 -0.90625 27.28125 -0.40625 C 26.414062 0.09375 25.613281 0.34375 24.875 0.34375 C 24.238281 0.34375 23.507812 -0.0625 22.6875 -0.875 C 21.875 -1.695312 21.039062 -2.773438 20.1875 -4.109375 C 19.332031 -5.453125 18.535156 -6.890625 17.796875 -8.421875 C 17.066406 -9.960938 16.46875 -11.4375 16 -12.84375 L 13.6875 -12.6875 C 13.550781 -10.644531 13.425781 -8.601562 13.3125 -6.5625 C 13.195312 -4.53125 13.140625 -2.578125 13.140625 -0.703125 C 13.140625 -0.00390625 12.753906 0.34375 11.984375 0.34375 C 10.878906 0.34375 9.742188 0.1875 8.578125 -0.125 C 7.410156 -0.445312 6.359375 -0.847656 5.421875 -1.328125 C 4.484375 -1.816406 3.8125 -2.3125 3.40625 -2.8125 C 3.070312 -3.238281 2.90625 -3.789062 2.90625 -4.46875 C 2.90625 -5.832031 2.960938 -7.453125 3.078125 -9.328125 C 3.203125 -11.203125 3.363281 -13.175781 3.5625 -15.25 C 3.03125 -16.1875 2.550781 -17.164062 2.125 -18.1875 C 1.707031 -19.207031 1.5 -19.929688 1.5 -20.359375 C 1.5 -20.859375 1.75 -21.109375 2.25 -21.109375 C 2.519531 -21.078125 2.820312 -21.066406 3.15625 -21.078125 C 3.488281 -21.097656 3.84375 -21.109375 4.21875 -21.109375 C 4.476562 -23.316406 4.742188 -25.398438 5.015625 -27.359375 C 5.285156 -29.316406 5.535156 -30.988281 5.765625 -32.375 C 6.003906 -33.757812 6.1875 -34.703125 6.3125 -35.203125 C 6.382812 -35.441406 6.503906 -35.660156 6.671875 -35.859375 C 6.835938 -36.054688 7.125 -36.15625 7.53125 -36.15625 C 7.957031 -36.15625 8.53125 -36.113281 9.25 -36.03125 C 9.96875 -35.945312 10.726562 -35.847656 11.53125 -35.734375 C 12.332031 -35.617188 13.066406 -35.492188 13.734375 -35.359375 C 14.410156 -35.222656 14.914062 -35.085938 15.25 -34.953125 C 15.613281 -34.828125 15.882812 -34.644531 16.0625 -34.40625 C 16.25 -34.175781 16.3125 -33.859375 16.25 -33.453125 Z M 16.25 -33.453125 "/></g></g><g style="fill:#ffffff;fill-opacity:1;"><g transform="translate(122.300102, 71.581856)"><path style="stroke:none" d="M 22.125 -14.1875 C 20.582031 -14.1875 18.914062 -14.050781 17.125 -13.78125 C 15.332031 -13.519531 13.785156 -13.191406 12.484375 -12.796875 C 12.285156 -11.085938 12.09375 -9.203125 11.90625 -7.140625 C 11.726562 -5.085938 11.519531 -2.773438 11.28125 -0.203125 C 11.25 0.503906 10.863281 0.859375 10.125 0.859375 C 9.019531 0.859375 7.925781 0.570312 6.84375 0 C 5.757812 -0.570312 4.789062 -1.222656 3.9375 -1.953125 C 3.082031 -2.691406 2.457031 -3.3125 2.0625 -3.8125 C 1.894531 -4.039062 1.757812 -4.289062 1.65625 -4.5625 C 1.550781 -4.832031 1.519531 -5.132812 1.5625 -5.46875 C 1.820312 -7.570312 2.101562 -9.800781 2.40625 -12.15625 C 2.707031 -14.519531 3.015625 -16.785156 3.328125 -18.953125 C 3.648438 -21.128906 3.945312 -23.019531 4.21875 -24.625 C 4.050781 -24.894531 3.832031 -25.285156 3.5625 -25.796875 C 3.289062 -26.316406 3.035156 -26.84375 2.796875 -27.375 C 2.566406 -27.914062 2.382812 -28.367188 2.25 -28.734375 C 2.082031 -29.140625 2.109375 -29.660156 2.328125 -30.296875 C 2.546875 -30.929688 2.804688 -31.316406 3.109375 -31.453125 C 4.742188 -32.253906 6.585938 -32.953125 8.640625 -33.546875 C 10.703125 -34.148438 12.859375 -34.648438 15.109375 -35.046875 C 17.367188 -35.453125 19.585938 -35.707031 21.765625 -35.8125 C 22.535156 -35.875 23.285156 -35.851562 24.015625 -35.75 C 24.753906 -35.65625 25.273438 -35.507812 25.578125 -35.3125 C 25.878906 -35.113281 26.140625 -34.726562 26.359375 -34.15625 C 26.578125 -33.582031 26.75 -32.945312 26.875 -32.25 C 27.007812 -31.550781 27.085938 -30.882812 27.109375 -30.25 C 27.128906 -29.613281 27.070312 -29.128906 26.9375 -28.796875 C 26.863281 -28.554688 26.59375 -28.335938 26.125 -28.140625 C 25.65625 -27.941406 25.304688 -27.84375 25.078125 -27.84375 C 22.171875 -27.84375 19.671875 -27.695312 17.578125 -27.40625 C 15.484375 -27.125 13.46875 -26.664062 11.53125 -26.03125 L 12.03125 -25.78125 C 12.300781 -25.675781 12.585938 -25.445312 12.890625 -25.09375 C 13.191406 -24.75 13.453125 -24.367188 13.671875 -23.953125 C 13.890625 -23.535156 13.960938 -23.191406 13.890625 -22.921875 L 13.4375 -20.359375 C 14.476562 -20.628906 15.554688 -20.90625 16.671875 -21.1875 C 17.796875 -21.476562 18.867188 -21.65625 19.890625 -21.71875 C 20.910156 -21.78125 21.804688 -21.613281 22.578125 -21.21875 C 22.867188 -21.082031 23.113281 -20.628906 23.3125 -19.859375 C 23.519531 -19.085938 23.65625 -18.273438 23.71875 -17.421875 C 23.789062 -16.578125 23.742188 -15.921875 23.578125 -15.453125 C 23.503906 -15.210938 23.300781 -14.941406 22.96875 -14.640625 C 22.632812 -14.335938 22.351562 -14.1875 22.125 -14.1875 Z M 22.125 -14.1875 "/></g></g><g style="fill:#ffffff;fill-opacity:1;"><g transform="translate(149.42821, 71.581856)"><path style="stroke:none" d="M 22.421875 -10.9375 C 22.484375 -10.9375 22.554688 -10.941406 22.640625 -10.953125 C 22.722656 -10.972656 22.800781 -10.984375 22.875 -10.984375 C 23.34375 -10.984375 23.691406 -10.78125 23.921875 -10.375 C 24.628906 -9.144531 25.070312 -7.859375 25.25 -6.515625 C 25.4375 -5.179688 25.53125 -4.128906 25.53125 -3.359375 C 25.5 -2.617188 25.378906 -2.109375 25.171875 -1.828125 C 24.972656 -1.546875 24.707031 -1.320312 24.375 -1.15625 C 23.707031 -0.789062 22.546875 -0.457031 20.890625 -0.15625 C 19.234375 0.144531 17.382812 0.296875 15.34375 0.296875 C 13.738281 0.296875 12.09375 0.164062 10.40625 -0.09375 C 8.71875 -0.363281 7.132812 -0.804688 5.65625 -1.421875 C 4.1875 -2.046875 2.953125 -2.910156 1.953125 -4.015625 C 1.816406 -4.148438 1.75 -4.367188 1.75 -4.671875 C 1.582031 -5.097656 1.5 -5.53125 1.5 -5.96875 C 1.5 -7.632812 1.554688 -9.597656 1.671875 -11.859375 C 1.796875 -14.117188 1.96875 -16.476562 2.1875 -18.9375 C 2.40625 -21.394531 2.65625 -23.75 2.9375 -26 C 3.21875 -28.257812 3.523438 -30.25 3.859375 -31.96875 C 4.191406 -33.695312 4.523438 -34.945312 4.859375 -35.71875 C 4.960938 -35.914062 5.097656 -36.125 5.265625 -36.34375 C 5.429688 -36.5625 5.71875 -36.671875 6.125 -36.671875 C 6.550781 -36.671875 7.125 -36.601562 7.84375 -36.46875 C 8.5625 -36.332031 9.3125 -36.15625 10.09375 -35.9375 C 10.882812 -35.71875 11.613281 -35.484375 12.28125 -35.234375 C 12.957031 -34.984375 13.460938 -34.722656 13.796875 -34.453125 C 14.097656 -34.222656 14.351562 -33.972656 14.5625 -33.703125 C 14.78125 -33.429688 14.890625 -33.113281 14.890625 -32.75 C 14.890625 -32.71875 14.878906 -32.675781 14.859375 -32.625 C 14.847656 -32.570312 14.84375 -32.515625 14.84375 -32.453125 C 14.613281 -31.148438 14.328125 -29.367188 13.984375 -27.109375 C 13.648438 -24.847656 13.316406 -22.375 12.984375 -19.6875 C 12.648438 -17 12.351562 -14.316406 12.09375 -11.640625 L 12.09375 -11.390625 C 12.09375 -10.585938 12.492188 -10.1875 13.296875 -10.1875 L 13.4375 -10.1875 C 15.3125 -10.28125 17.015625 -10.398438 18.546875 -10.546875 C 20.085938 -10.703125 21.378906 -10.832031 22.421875 -10.9375 Z M 22.421875 -10.9375 "/></g></g><g style="fill:#ffffff;fill-opacity:1;"><g transform="translate(174.951699, 71.581856)"><path style="stroke:none" d="M 14.546875 -35.859375 C 16.316406 -35.859375 18.085938 -35.65625 19.859375 -35.25 C 21.628906 -34.851562 23.035156 -34.320312 24.078125 -33.65625 C 24.773438 -33.21875 25.550781 -32.460938 26.40625 -31.390625 C 27.257812 -30.328125 27.992188 -28.898438 28.609375 -27.109375 C 29.234375 -25.316406 29.546875 -23.082031 29.546875 -20.40625 C 29.546875 -17.40625 29.207031 -14.597656 28.53125 -11.984375 C 27.863281 -9.378906 26.9375 -7.097656 25.75 -5.140625 C 24.5625 -3.179688 23.179688 -1.660156 21.609375 -0.578125 C 20.046875 0.503906 18.359375 1.046875 16.546875 1.046875 C 14.804688 1.046875 13.035156 0.851562 11.234375 0.46875 C 9.429688 0.09375 8.023438 -0.429688 7.015625 -1.109375 C 6.347656 -1.578125 5.578125 -2.335938 4.703125 -3.390625 C 3.835938 -4.441406 3.085938 -5.867188 2.453125 -7.671875 C 1.816406 -9.472656 1.5 -11.710938 1.5 -14.390625 C 1.5 -17.398438 1.832031 -20.207031 2.5 -22.8125 C 3.175781 -25.425781 4.109375 -27.703125 5.296875 -29.640625 C 6.484375 -31.578125 7.867188 -33.097656 9.453125 -34.203125 C 11.046875 -35.304688 12.742188 -35.859375 14.546875 -35.859375 Z M 16.453125 -28.03125 C 15.921875 -28.03125 15.507812 -27.972656 15.21875 -27.859375 C 14.9375 -27.742188 14.726562 -27.617188 14.59375 -27.484375 C 14.289062 -27.148438 13.90625 -26.390625 13.4375 -25.203125 C 12.96875 -24.015625 12.554688 -22.410156 12.203125 -20.390625 C 11.859375 -18.367188 11.6875 -15.9375 11.6875 -13.09375 C 11.6875 -11.351562 11.828125 -10.019531 12.109375 -9.09375 C 12.398438 -8.175781 12.773438 -7.550781 13.234375 -7.21875 C 13.703125 -6.882812 14.191406 -6.71875 14.703125 -6.71875 C 15.234375 -6.71875 15.628906 -6.785156 15.890625 -6.921875 C 16.160156 -7.054688 16.363281 -7.191406 16.5 -7.328125 C 16.832031 -7.628906 17.234375 -8.367188 17.703125 -9.546875 C 18.171875 -10.734375 18.578125 -12.335938 18.921875 -14.359375 C 19.273438 -16.390625 19.453125 -18.8125 19.453125 -21.625 C 19.453125 -23.425781 19.3125 -24.785156 19.03125 -25.703125 C 18.75 -26.617188 18.378906 -27.234375 17.921875 -27.546875 C 17.472656 -27.867188 16.984375 -28.03125 16.453125 -28.03125 Z M 16.453125 -28.03125 "/></g></g><g style="fill:#ffffff;fill-opacity:1;"><g transform="translate(205.991066, 71.581856)"><path style="stroke:none" d="M 37.875 -32.15625 C 38.332031 -31.613281 38.476562 -30.925781 38.3125 -30.09375 C 37.851562 -27.445312 37.296875 -24.675781 36.640625 -21.78125 C 35.984375 -18.894531 35.28125 -16.082031 34.53125 -13.34375 C 33.78125 -10.601562 33.035156 -8.085938 32.296875 -5.796875 C 31.566406 -3.503906 30.863281 -1.625 30.1875 -0.15625 C 30.0625 0.144531 29.820312 0.421875 29.46875 0.671875 C 29.113281 0.921875 28.769531 0.984375 28.4375 0.859375 C 27.738281 0.753906 26.878906 0.578125 25.859375 0.328125 C 24.835938 0.078125 23.859375 -0.210938 22.921875 -0.546875 C 21.984375 -0.878906 21.25 -1.21875 20.71875 -1.5625 C 20.28125 -1.820312 20.019531 -2.175781 19.9375 -2.625 C 19.851562 -3.082031 19.710938 -3.628906 19.515625 -4.265625 C 19.140625 -5.367188 18.84375 -6.835938 18.625 -8.671875 C 18.414062 -10.515625 18.226562 -12.351562 18.0625 -14.1875 C 17.851562 -14.125 17.734375 -14.078125 17.703125 -14.046875 C 17.640625 -13.742188 17.488281 -13.179688 17.25 -12.359375 C 17.019531 -11.546875 16.753906 -10.585938 16.453125 -9.484375 C 16.148438 -8.378906 15.820312 -7.265625 15.46875 -6.140625 C 15.125 -5.023438 14.78125 -3.984375 14.4375 -3.015625 C 14.101562 -2.046875 13.804688 -1.289062 13.546875 -0.75 C 13.304688 0.0507812 12.960938 0.484375 12.515625 0.546875 C 12.066406 0.617188 11.707031 0.640625 11.4375 0.609375 C 10.632812 0.535156 9.6875 0.257812 8.59375 -0.21875 C 7.507812 -0.707031 6.632812 -1.203125 5.96875 -1.703125 C 5.632812 -1.972656 5.382812 -2.273438 5.21875 -2.609375 C 5.050781 -2.941406 4.914062 -3.273438 4.8125 -3.609375 C 4.476562 -4.878906 4.109375 -6.664062 3.703125 -8.96875 C 3.304688 -11.28125 2.820312 -14.457031 2.25 -18.5 C 1.957031 -20.75 1.757812 -22.882812 1.65625 -24.90625 C 1.550781 -26.925781 1.507812 -28.722656 1.53125 -30.296875 C 1.550781 -31.867188 1.5625 -33.085938 1.5625 -33.953125 C 1.5625 -34.285156 1.691406 -34.726562 1.953125 -35.28125 C 2.222656 -35.832031 2.660156 -36.109375 3.265625 -36.109375 C 4.328125 -36.109375 5.441406 -35.957031 6.609375 -35.65625 C 7.785156 -35.351562 8.863281 -34.984375 9.84375 -34.546875 C 10.832031 -34.117188 11.5625 -33.6875 12.03125 -33.25 C 12.332031 -32.988281 12.535156 -32.03125 12.640625 -30.375 C 12.742188 -28.71875 12.84375 -26.71875 12.9375 -24.375 C 13.007812 -23.070312 13.050781 -21.59375 13.0625 -19.9375 C 13.082031 -18.28125 13.109375 -16.664062 13.140625 -15.09375 C 13.441406 -15.96875 13.757812 -17.03125 14.09375 -18.28125 C 14.425781 -19.53125 14.75 -20.820312 15.0625 -22.15625 C 15.382812 -23.5 15.6875 -24.722656 15.96875 -25.828125 C 16.257812 -26.929688 16.519531 -27.75 16.75 -28.28125 C 17.15625 -29.15625 17.566406 -29.597656 17.984375 -29.609375 C 18.398438 -29.628906 18.875 -29.554688 19.40625 -29.390625 C 19.738281 -29.328125 20.125 -29.175781 20.5625 -28.9375 C 21 -28.707031 21.382812 -28.347656 21.71875 -27.859375 C 22.050781 -27.378906 22.203125 -26.703125 22.171875 -25.828125 C 22.171875 -25.597656 22.175781 -24.910156 22.1875 -23.765625 C 22.207031 -22.628906 22.257812 -21.234375 22.34375 -19.578125 C 22.425781 -17.929688 22.550781 -16.171875 22.71875 -14.296875 C 22.71875 -14.296875 22.722656 -14.296875 22.734375 -14.296875 C 22.753906 -14.296875 22.765625 -14.3125 22.765625 -14.34375 C 23.441406 -16.582031 24.0625 -18.914062 24.625 -21.34375 C 25.195312 -23.769531 25.757812 -26.148438 26.3125 -28.484375 C 26.863281 -30.828125 27.4375 -32.984375 28.03125 -34.953125 C 28.132812 -35.285156 28.296875 -35.5625 28.515625 -35.78125 C 28.734375 -36 29.007812 -36.109375 29.34375 -36.109375 C 30.414062 -36.109375 31.519531 -35.890625 32.65625 -35.453125 C 33.789062 -35.023438 34.828125 -34.507812 35.765625 -33.90625 C 36.703125 -33.300781 37.40625 -32.71875 37.875 -32.15625 Z M 37.875 -32.15625 "/></g></g></g></svg>