<svg xmlns:dc="http://purl.org/dc/elements/1.1/" xmlns:cc="http://creativecommons.org/ns#" xmlns:rdf="http://www.w3.org/1999/02/22-rdf-syntax-ns#" xmlns:svg="http://www.w3.org/2000/svg" xmlns="http://www.w3.org/2000/svg" xmlns:sodipodi="http://sodipodi.sourceforge.net/DTD/sodipodi-0.dtd" xmlns:inkscape="http://www.inkscape.org/namespaces/inkscape" version="1.1" x="0px" y="0px" viewBox="0 0 100 125"><g transform="translate(0,-952.36218)"><path style="text-indent:0;text-transform:none;direction:ltr;block-progression:tb;baseline-shift:baseline;color:#000000;enable-background:accumulate;" d="m 50,960.36217 c -9.9056,0 -18,8.09441 -18,18 0,9.90559 8.0944,18.00002 18,18.00002 9.9056,0 18,-8.09443 18,-18.00002 0,-9.90559 -8.0944,-18 -18,-18 z m 0,6 c 6.663,0 12,5.33705 12,12 0,6.66295 -5.337,12 -12,12 -6.663,0 -12,-5.33705 -12,-12 0,-6.66295 5.337,-12 12,-12 z m 0,32.00002 c -8.86152,0 -16.90385,2.40181 -22.90625,6.43751 C 21.09135,1008.8354 17,1014.7103 17,1021.3622 l 0,20 a 3.0003,3.0003 0 0 0 3,3 l 60,0 a 3.0003,3.0003 0 0 0 3,-3 l 0,-20 c 0,-6.6519 -4.09135,-12.5268 -10.09375,-16.5625 C 66.90385,1000.764 58.86152,998.36219 50,998.36219 z m 0,6.00001 c 7.75848,0 14.7199,2.1503 19.5625,5.4062 4.8426,3.2559 7.4375,7.4119 7.4375,11.5938 l 0,17 -54,0 0,-17 c 0,-4.1819 2.5949,-8.3379 7.4375,-11.5938 4.8426,-3.2559 11.80402,-5.4062 19.5625,-5.4062 z" fill="#000000" fill-opacity="1" stroke="none" marker="none" visibility="visible" display="inline" overflow="visible"/></g><text x="0" y="115" fill="#000000" font-size="5px" font-weight="bold" font-family="'Helvetica Neue', Helvetica, Arial-Unicode, Arial, Sans-serif">Created by Rockicon</text><text x="0" y="120" fill="#000000" font-size="5px" font-weight="bold" font-family="'Helvetica Neue', Helvetica, Arial-Unicode, Arial, Sans-serif">from the Noun Project</text></svg>