<!-- icon666.com - MILLIONS OF FREE VECTOR ICONS --><svg id="Layer_1" enable-background="new 0 0 450 450" viewBox="0 0 450 450" xmlns="http://www.w3.org/2000/svg"><g><g><g id="XMLID_1_"><path d="m277.4 99c-.4-1.6.1-3.3 1.2-4.6 1.1-1.2 2.8-1.9 4.4-1.7l33 4c-32.8-23.7-70.1-32.9-70.5-33-1.5-.4-2.8-1.4-3.5-2.8l-23.3-50.9h-32.1l21.4 46.6c.6 1.4.6 3-.1 4.4s-1.9 2.4-3.4 2.7c-.4.1-37.8 9.3-70.5 33l33-4h.6c1.4 0 2.8.6 3.8 1.7 1.1 1.2 1.6 2.9 1.2 4.6l-7.4 31.7-3.8 16.5c13.7-10.3 37.6-24.6 63.6-24.6s49.9 14.4 63.6 24.6l-3.8-16.5zm-16.4 4.6c-1.5 2.4-4.7 3.1-7.1 1.6-20.3-13-37.6-13-57.8 0-.9.5-1.8.8-2.8.8-1.7 0-3.3-.8-4.3-2.3-1.5-2.4-.8-5.5 1.6-7.1 23.8-15.3 45.1-15.3 68.9 0 2.3 1.5 3 4.7 1.5 7z" fill="#000000" style="fill: rgb(7, 126, 102);"></path><path d="m406.5 258.5c0 100.1-81.4 181.5-181.5 181.5s-181.6-81.4-181.6-181.5c0-60.1 29.6-116.1 79.3-150.1l38.2-4.6-5.2 22.4c-23.4 12.3-43.1 30.5-57.2 52.9-1 1.6-1.9 3.1-2.8 4.7-13.1 22.6-20 48.3-20 74.6 0 27 7.2 52.3 19.7 74.1.1.2.2.4.3.5s.2.3.3.4c13 22.2 31.6 40.8 53.8 53.8.2.1.4.3.6.4s.4.2.5.3c21.9 12.5 47.2 19.7 74.1 19.7s52.3-7.2 74.1-19.7c.2-.1.4-.2.5-.3.2-.1.4-.2.5-.4 22.2-13 40.8-31.6 53.8-53.8.1-.1.2-.3.3-.4.1-.2.2-.3.3-.5 12.5-21.9 19.7-47.2 19.7-74.1 0-26.3-6.9-52-20-74.6-.9-1.6-1.9-3.2-2.8-4.7-14.1-22.4-33.9-40.7-57.2-52.9l-5.2-22.4 38.2 4.6c49.7 33.9 79.3 89.9 79.3 150.1z" fill="#000000" style="fill: rgb(7, 126, 102);"></path><path d="m311.6 258.5c0-2.8 2.3-5.1 5.1-5.1h47.2c-.8-21.4-6.4-41.8-16-60l-28 16.1c-.8.5-1.7.7-2.6.7-1.8 0-3.5-.9-4.4-2.6-1.4-2.4-.6-5.6 1.9-7l28-16.1c-11.3-18-26.7-33.4-45.5-44.8l4.6 20c.5 2.2-.5 4.5-2.5 5.6s-4.5.8-6.1-.8c-.1-.1-2.1-2-5.5-4.8l-5.1 8.9c-.9 1.6-2.7 2.6-4.4 2.6-.9 0-1.8-.2-2.6-.7-2.4-1.4-3.3-4.5-1.9-7l5.8-10c-11.9-8.4-30.1-18.9-49.6-20.4v33.7c0 2.8-2.3 5.1-5.1 5.1s-5.1-2.3-5.1-5.1v-33.8c-19.6 1.6-37.8 12-49.6 20.4l5.8 10c1.4 2.5.6 5.6-1.9 7-.8.5-1.7.7-2.6.7-1.8 0-3.5-.9-4.4-2.6l-5.1-8.9c-3.5 2.9-5.4 4.8-5.5 4.8-1 1-2.3 1.4-3.6 1.4-.9 0-1.7-.2-2.5-.7-2-1.1-3-3.4-2.5-5.6l4.6-20c-18.8 11.4-34.2 26.8-45.5 44.8l28 16.1c2.4 1.4 3.3 4.5 1.9 7-.9 1.6-2.7 2.6-4.4 2.6-.9 0-1.8-.2-2.6-.7l-28-16.1c-9.6 18.2-15.2 38.6-16 60h47.2c2.8 0 5.1 2.3 5.1 5.1s-2.3 5.1-5.1 5.1h-47c.8 21.6 6.5 41.9 16.1 59.9l27.9-16.1c2.4-1.4 5.6-.6 7 1.9s.6 5.6-1.9 7l-27.9 16.1c11.1 17.7 26.2 32.7 43.9 43.8l16.1-27.8c1.4-2.5 4.5-3.3 7-1.9 2.4 1.4 3.3 4.5 1.9 7l-16.2 28c18 9.6 38.3 15.3 59.9 16.1v-47.2c0-2.8 2.3-5.1 5.1-5.1s5.1 2.3 5.1 5.1v47.2c21.6-.8 41.9-6.5 59.9-16.1l-16-27.8c-1.4-2.4-.6-5.6 1.9-7s5.6-.6 7 1.9l16.1 27.8c17.7-11.1 32.7-26.2 43.9-43.8l-27.9-16.1c-2.4-1.4-3.3-4.5-1.9-7 1.4-2.4 4.5-3.3 7-1.9l27.9 16.1c9.6-18 15.3-38.3 16.1-59.9h-47.2c-3 0-5.3-2.3-5.3-5.1zm-47.8-57-33.6 58.3v29.7c0 2.8-2.3 5.1-5.1 5.1s-5.1-2.3-5.1-5.1v-31.1c0-.9.2-1.8.7-2.6l34.3-59.5c1.4-2.4 4.5-3.3 7-1.9 2.4 1.5 3.2 4.7 1.8 7.1z" fill="#000000" style="fill: rgb(7, 126, 102);"></path></g></g></g></svg>